# xmcd
#
# Track frame offsets: 
#        150
#        19212
#        37235
#        56512
#        71920
#        106692
#        122642
#        145037
#        158835
#        176677
#        197632
#        220097
#
# Disc length: 3307 seconds
#
# Revision: 3
# Processed by: cddbd v1.5.2PL0 Copyright (c) Steve Scherf et al.
# Submitted via: ExactAudioCopy v0.95b3
#
DISCID=ab0ce90c
DTITLE=Tinsley Ellis - Fire It Up
DYEAR=1997
DGENRE=Blues Rock
TTITLE0=Diggin' My Own Grave
TTITLE1=Just Dropped In
TTITLE2=Standing On The Edge Of Love
TTITLE3=Soulful
TTITLE4=Are You Sorry?
TTITLE5=I Walk Alone
TTITLE6=Change Your Mind
TTITLE7=Break My Rule
TTITLE8=One Sunny Day
TTITLE9=If That's How He Loves You
TTITLE10=Look What You Done
TTITLE11=Everyday
EXTD=\nFixed fucked track titles - again.\n\n\n
EXTT0=
EXTT1=
EXTT2=
EXTT3=
EXTT4=
EXTT5=
EXTT6=
EXTT7=
EXTT8=
EXTT9=
EXTT10=
EXTT11=
PLAYORDER=
